# xmcd
#
# Track frame offsets:
#	183
#	12728
#	24770
#	48563
#	73600
#	88613
#	106068
#	117895
#	129548
#	142665
#
# Disc length: 2119 seconds
#
# Revision: 1
# Processed by: cddbd v1.4PL0 Copyright (c) Steve Scherf et al.
# Submitted via: audiograbber 1.81.03
#
DISCID=7b08450a
DTITLE=Ike And Tina Turner - Finger Poppin
DYEAR=1900
DGENRE=
TTITLE0=Finger Poppin
TTITLE1=(I ' II Do Anyting )  Just To Be With You
TTITLE2=A Fool For You
TTITLE3=All I Can Do Is Cry
TTITLE4=It's All Over 
TTITLE5=Tell Her I'm Not Home
TTITLE6=No Tears To Cry
TTITLE7=Somebody ( Somewhere ) Needs You
TTITLE8=You Must Believe In Me
TTITLE9=I Can't Stop Loving You
EXTD=
EXTT0=
EXTT1=
EXTT2=
EXTT3=
EXTT4=
EXTT5=
EXTT6=
EXTT7=
EXTT8=
EXTT9=
PLAYORDER=
